<?xml version="1.0" encoding="utf-8"?>
<!-- Generator: Adobe Illustrator 15.0.0, SVG Export Plug-In . SVG Version: 6.00 Build 0)  -->
<!DOCTYPE svg PUBLIC "-//W3C//DTD SVG 1.1//EN" "http://www.w3.org/Graphics/SVG/1.1/DTD/svg11.dtd">
<svg version="1.1" id="Calque_1" xmlns="http://www.w3.org/2000/svg" xmlns:xlink="http://www.w3.org/1999/xlink" x="0px" y="0px"
	 width="100px" height="100px" viewBox="0 0 100 100" enable-background="new 0 0 100 100" xml:space="preserve">
<g>
	<path fill="#020202" d="M89.881,35.682l-6.848-25.612c-0.352-1.311-1.713-2.086-3.024-1.734l-69.19,18.542
		c-1.31,0.352-2.084,1.714-1.733,3.024l9.426,35.173c0.352,1.311,1.713,2.084,3.024,1.733l46.889-12.561
		c0.622-2.296,1.945-5.924,2.824-8.027c2.521-6.038,8.419-10.955,15.142-11.005C87.598,35.047,88.791,35.242,89.881,35.682z
		 M55.598,52.979c-0.161,0.184-0.367,0.332-0.623,0.401c-0.682,0.18-1.354-0.23-1.533-0.913l-0.578-2.179
		c-1.072,0.176-2.138,0.221-3.068,0.089c-0.934-0.142-1.807-0.499-2.624-1.067c-0.64-0.429-1.176-0.903-1.601-1.422
		c-0.424-0.521-0.692-1.042-0.823-1.534c-0.144-0.548-0.095-1.075,0.201-1.579c0.295-0.505,0.742-0.85,1.312-1.001
		c1.073-0.284,1.911,0.125,2.534,1.201c0.699,1.229,1.78,1.924,3.202,2.046l-1.801-6.826c-1.386-0.017-2.525-0.086-3.38-0.178
		c-0.886-0.094-1.724-0.321-2.513-0.733c-0.837-0.424-1.546-1.039-2.134-1.779s-1.004-1.605-1.268-2.602
		c-0.329-1.249-0.343-2.491-0.044-3.734c0.298-1.245,0.911-2.345,1.868-3.335c1.001-0.962,2.258-1.712,3.602-2.223l0.022-0.023
		l-0.579-2.179c-0.18-0.682,0.208-1.376,0.889-1.557c0.682-0.179,1.398,0.23,1.579,0.913l0.534,2.178
		c1.154-0.179,2.314-0.168,3.357,0.022c1.08,0.206,2.024,0.552,2.846,1.067c0.819,0.515,1.499,1.121,2.001,1.778
		c0.502,0.658,0.835,1.334,1.022,2.045c0.278,1.122-0.423,2.224-1.602,2.623c-0.874,0.222-1.713,0.033-2.311-0.801
		c-0.533-0.82-0.946-1.449-1.29-1.867c-0.732-0.873-1.899-1.413-3.113-1.512l2.023,7.67c1.464,0.028,2.724,0.175,3.78,0.4
		c1.118,0.237,2.1,0.731,2.958,1.489c0.855,0.758,1.484,1.846,1.866,3.291c0.497,1.884,0.304,3.593-0.577,5.114
		c-0.219,0.376-0.491,0.737-0.801,1.067c-0.929,0.991-2.222,1.758-3.625,2.291l0.579,2.179
		C55.999,52.228,55.866,52.673,55.598,52.979z M83.434,21.052c-5.716,1.532-11.608-1.865-13.141-7.581l10.36-2.757L83.434,21.052z
		 M55.598,45.553c0.679-0.744,0.989-1.71,0.733-2.912c-0.229-0.865-0.646-1.462-1.245-1.778c-0.672-0.346-1.443-0.479-2.245-0.556
		l1.623,6.113C54.908,46.174,55.288,45.892,55.598,45.553z M31.253,61.673l-10.384,2.779l-2.757-10.36
		C23.829,52.56,29.72,55.956,31.253,61.673z M49.062,35.904l-1.869-7.07c-0.809,0.382-1.516,1-2.09,1.912
		c-0.425,0.826-0.522,1.669-0.289,2.557c0.252,0.954,0.722,1.614,1.446,1.979C47.077,35.684,48.065,35.84,49.062,35.904z
		 M19.179,36.661c-1.31,1.37-2.97,2.409-4.936,2.935l-2.779-10.338l10.339-2.779C22.808,30.229,21.681,34.045,19.179,36.661z"/>
	<path fill="#F5F6F6" d="M66.479,90.071c0.064-0.073,0.132-0.139,0.178-0.222c1.306-2.412,1.689-5.036,2.38-7.805
		c0.427-1.714,0.789-3.55,1.511-5.113c4.083-3.258,8.362-6.292,12.54-9.428c2.513-1.886,3.873-4.842,4.491-7.914
		c1.064-5.299,2.636-10.471,3.78-15.741c0.555-2.561-0.436-5.454-3.025-6.003c-3.631-0.913-7.492,0.651-10.316,2.935
		c-3.731,3.36-5.454,8.325-6.76,13.028c-0.787,2.766-0.185,1.533-7.958,3.735c-8.261,2.306-16.568,4.587-24.723,7.203
		c-1.898,0.578-2.62,2.538-3.668,4.024c-3.13,5.081-5.089,11.573-2.868,17.319c0.77,1.992,3.31,2.052,5.135,2.379
		c9.324,1.677,19.015,3.116,28.526,2.023C66.027,90.457,66.283,90.289,66.479,90.071z"/>
</g>
</svg>
