<?xml version="1.0" encoding="utf-8"?>
<!-- Generator: Adobe Illustrator 15.0.0, SVG Export Plug-In . SVG Version: 6.00 Build 0)  -->
<!DOCTYPE svg PUBLIC "-//W3C//DTD SVG 1.1//EN" "http://www.w3.org/Graphics/SVG/1.1/DTD/svg11.dtd">
<svg version="1.1" id="Calque_1" xmlns="http://www.w3.org/2000/svg" xmlns:xlink="http://www.w3.org/1999/xlink" x="0px" y="0px"
	 width="100px" height="100px" viewBox="0 0 100 100" enable-background="new 0 0 100 100" xml:space="preserve">
<g>
	<path fill="#FFFFFF" d="M50.915,91.979l-0.497-0.002c-11.212-0.129-21.705-4.617-29.542-12.637
		C13.039,71.322,8.794,60.73,8.925,49.517C9.189,26.636,28.017,8.021,50.894,8.021l0.494,0.002
		c23.146,0.269,41.758,19.318,41.489,42.463C92.612,73.365,73.789,91.979,50.915,91.979z M50.894,10.652
		c-21.442,0-39.089,17.449-39.338,38.896c-0.122,10.508,3.857,20.436,11.203,27.954c7.346,7.516,17.181,11.725,27.691,11.844
		l0.466,0.004c21.438,0,39.082-17.447,39.33-38.893c0.252-21.693-17.193-39.548-38.888-39.8L50.894,10.652z"/>
	<g>
		
			<ellipse transform="matrix(-0.0116 0.9999 -0.9999 -0.0116 72.2298 -0.9902)" fill="#020202" cx="36.604" cy="35.203" rx="7.511" ry="5.861"/>
		<path fill="#020202" d="M71.396,35.607c-0.046,4.147-2.709,7.477-5.943,7.44c-3.234-0.039-5.823-3.43-5.775-7.577
			c0.049-4.148,2.712-7.481,5.948-7.442C68.863,28.064,71.445,31.459,71.396,35.607z"/>
	</g>
	<g>
		
			<rect x="49.291" y="46.086" transform="matrix(0.669 0.7433 -0.7433 0.669 63.8752 -16.6275)" fill="#020202" width="2.63" height="34.634"/>
		
			<rect x="33.549" y="62.09" transform="matrix(0.7274 0.6862 -0.6862 0.7274 57.3773 -17.6218)" fill="#020202" width="34.638" height="2.63"/>
	</g>
</g>
</svg>
