<?xml version="1.0" encoding="utf-8"?>
<!-- Generator: Adobe Illustrator 15.0.0, SVG Export Plug-In . SVG Version: 6.00 Build 0)  -->
<!DOCTYPE svg PUBLIC "-//W3C//DTD SVG 1.1//EN" "http://www.w3.org/Graphics/SVG/1.1/DTD/svg11.dtd">
<svg version="1.1" id="Calque_1" xmlns="http://www.w3.org/2000/svg" xmlns:xlink="http://www.w3.org/1999/xlink" x="0px" y="0px"
	 width="100px" height="100px" viewBox="0 0 100 100" enable-background="new 0 0 100 100" xml:space="preserve">
<g>
	<g>
		<path fill="#FFFFFF" d="M52.188,16.648l-3.576,2.434h4.922c-0.483,1.027-0.758,2.172-0.758,3.381c0,4.411,3.571,7.983,7.983,7.983
			c4.409,0,7.982-3.572,7.982-7.983c0-1.209-0.276-2.354-0.758-3.381h1.591v-2.44c0,0-7.438-2.376-10.76-3.666
			c-2.996-1.161-6.38-4.108-8.656-4.1c-1.339,0.003-2.16,1.276-1.164,3.329C49.996,14.257,52.188,16.648,52.188,16.648z"/>
		<path fill="#020202" d="M22.393,18.566c0.273-0.414,0.631-0.732,1.029-0.971L22.976,6.719c0-3.629,1.362-3.892,2.011-3.892
			c0.647,0,2.175,0.591,2.01,3.76L26.448,17.47c0.118,0.057,0.241,0.111,0.357,0.186L49.09,32.317h23.469
			c1.649,0,3.058,1.02,3.637,2.463c0.179,0.393,0.284,0.824,0.284,1.287v26.792c0,1.713-1.39,3.105-3.104,3.105
			c-1.716,0-3.105-1.393-3.105-3.105V41.095h-0.726v52.858c0,2.287-1.854,4.145-4.143,4.145c-2.285,0-4.14-1.855-4.14-4.145V66.609
			h-2.864v27.344c0,2.287-1.854,4.145-4.143,4.145c-2.288,0-4.142-1.855-4.142-4.145V41.095l-6.961-5.028
			c0-0.012,0.003-0.021,0.003-0.032L26.076,24.8l-0.007,0.16c0,0.646-0.525,1.171-1.173,1.171c-0.646,0-1.173-0.524-1.173-1.171
			l-0.072-1.757l-0.346-0.226C21.836,22.01,21.429,20.035,22.393,18.566z"/>
	</g>
	<rect x="70.832" y="32.317" fill="#020202" width="1.313" height="3.449"/>
	<rect x="68.729" y="32.317" fill="#020202" width="1.312" height="3.449"/>
	<polygon fill="#020202" points="47.025,35.095 48.097,35.851 50.087,33.033 49.015,32.277 	"/>
	<polygon fill="#020202" points="45.307,33.883 46.379,34.638 48.366,31.823 47.295,31.064 	"/>
	<path fill="#020202" d="M61.354,39.235c0,2.629,2.587,3.432,2.587,3.432s2.592-0.439,2.592-3.432c0-1.241,0-1.761,0-1.761
		s-0.702,0.251-1.241,0.251s-1.351-1.293-1.351-1.293s-0.801,1.293-1.465,1.293c-0.686,0-1.124-0.251-1.124-0.251
		S61.354,38.221,61.354,39.235z"/>
</g>
</svg>
