<?xml version="1.0" encoding="utf-8"?>
<!-- Generator: Adobe Illustrator 15.0.0, SVG Export Plug-In . SVG Version: 6.00 Build 0)  -->
<!DOCTYPE svg PUBLIC "-//W3C//DTD SVG 1.1//EN" "http://www.w3.org/Graphics/SVG/1.1/DTD/svg11.dtd">
<svg version="1.1" id="Calque_1" xmlns="http://www.w3.org/2000/svg" xmlns:xlink="http://www.w3.org/1999/xlink" x="0px" y="0px"
	 width="100px" height="100px" viewBox="0 0 100 100" enable-background="new 0 0 100 100" xml:space="preserve">
<g>
	<path fill="#FFFFFF" d="M67.271,21.336H48.616L35.436,34.518v18.654l13.181,13.181h18.655l13.18-13.182V34.518L67.271,21.336z"/>
</g>
<path fill="#020202" d="M91.059,64.335l3.454-13.3l-5.323,9.487l2.164-15.687l-4.284,9.256c-1.455-1.578-3.531-2.571-5.849-2.571
	c-0.482,0-0.958,0.046-1.417,0.129c0.911-2.111,1.417-4.438,1.417-6.884c0-9.581-7.755-17.344-17.329-17.344
	c-3.973,0-7.634,1.34-10.559,3.59c-1.785-3.425-5.364-5.764-9.493-5.764c-5.867,0-10.628,4.721-10.704,10.575
	c-1.145-0.418-2.378-0.645-3.667-0.645c-5.914,0-10.707,4.798-10.707,10.717c0,2.398,0.787,4.612,2.116,6.396
	c-2.166,0.277-4.042,1.469-5.243,3.172L9.073,44.136l5.284,18.03l-0.232,0.027l-7.638-4.995l5.046,9.728
	c-2.227,1.106-3.462,2.326-3.462,3.608c0,5.042,19.1,9.13,42.66,9.13c23.559,0,42.658-4.088,42.658-9.13
	c0-1.177-1.039-2.3-2.933-3.333l4.056-7.129L91.059,64.335z"/>
</svg>
