<?xml version="1.0" encoding="utf-8"?>
<!-- Generator: Adobe Illustrator 15.0.0, SVG Export Plug-In . SVG Version: 6.00 Build 0)  -->
<!DOCTYPE svg PUBLIC "-//W3C//DTD SVG 1.1//EN" "http://www.w3.org/Graphics/SVG/1.1/DTD/svg11.dtd">
<svg version="1.1" id="Calque_1" xmlns="http://www.w3.org/2000/svg" xmlns:xlink="http://www.w3.org/1999/xlink" x="0px" y="0px"
	 width="300px" height="300px" viewBox="0 0 300 300" enable-background="new 0 0 300 300" xml:space="preserve">
<path fill="#000100" d="M275.614,200.329c-4.061-4.778-8.595-5.113-14.271,0.984c-5.947,0.181-10.099,0.287-16.064,0.489
	c3.195-2.697,4.898-4.761,8.091-7.454c4.911,1.562,9.708,1.03,11.788-4.447c1.592-1.852,3.36-2.942,7.426-3.092
	c-2.817-2.35-5.157-3.21-10.229-0.867c-7.484-3.365-8.11,1.408-9.446,4.536c-5.072,3.329-9.172,6.151-14.244,9.477
	c-10.338-3.017-18.733-4.707-29.062-7.716c2.242-2.317,4.488-4.432,6.73-6.761c0.589-1.964-0.445-2.962-2.138-3.263
	c-16.708-3.385-26.259-9.979-32.067-26.724c-2.433-7.008,2.814-9.088,4.621-4.795c2.506,5.945,5.243,12.481,12.741,17.533
	c2.591,1.75,10.283,0.33,5.749-3.93c-4.74-3.77-6.755-5.423-9.102-14.646c0-4.702,4.89-6.799,7.63-2.311
	c2.895,9.205,3.207,13.178,8.463,19.096c3.996,4.499,9.216,7.505,11.787,7.452c4.674-0.088,9.354-4.991,3.12-8.551
	c-9.124-3.571-12.473-8.467-13.811-13.116c-1.468-8.116,0.131-12.056,5.143-8.061c7.113,7.887,20.676,22.605,27.765,29.441
	c7.976,5.972,17.092,6.162,24.383,0.114c4.152-4.678,2.674-9.743-3.839-8.639c-14.697,1.216-25.853-5.936-38.052-25.222
	c-2.414-4.387-3.075-10.619,2.224-5.979c6.094,8.051,14.965,14.924,23.23,17.854c8.262,2.931,15.918,1.919,17.767-1.242
	c3.063-5.242,2.368-11.005-3.178-9.102c-4.549,1.563-10.971,1.97-17.653-0.574c-6.679-2.546-13.614-8.044-21.002-17.363
	c-2.518-5.281-1.683-9.74,3.41-7.022c12.091,10.032,27.671,18.153,35.648,13.259c5.844-3.58,5.955-12.74-1.474-12.16
	c-14.979,2.024-20.644-1.247-35.014-13.667c-3.289-2.386-3.053-8.423,2.138-4.565c12.109,7.614,28.615,10.597,35.101,6.619
	c5.837-3.58,4.972-14.479-4.852-10.604c-7.848,4.669-16.548,4.532-33.946-7.626c-4.385-3.548-1.117-8.22,2.483-6.21
	c13.991,7.798,34.368,11.124,39.696-4.71c2.041-6.073-1.671-9.609-7.163-5.401c-12.009,10.857-25.64,5.517-33.256,0.055
	c-1.993-0.077-6.219-7.641,0.838-6.472c18.223,4.087,36.238,0.551,39.495-12.075c1.92-4.096-1.821-11.326-8.468-5.259
	c-8.761,8.45-18.038,8.739-29.67,8.667c-5.947-1.203-5.994-7.614-1.038-8.551c9.198,0.205,18.291-3.738,25.565-7.744
	c7.09-3.972,12.999-9.579,14.851-17.334c1.148-6.947-5.681-14.317-9.822-6.962c-6.084,10.799-19.594,20.94-34.582,22.766
	c-0.772-1.276-2.761-4.553-5.172-3.64c-8.822,3.34-21.016,8.952-31.058,14.503c-2.178,1.204,0.379,7.034,0.868,9.274
	c0.499,5.705-1.256,9.35-3.063,11.469c-1.805,2.12-6.732,3.514-9.503,2.775c-5.55-1.481-8.532-6.295-7.599-14.851
	c0.288-0.904,0.525-5.016,5.055-10.373c2.275-2.691,5.462-6.126,10.518-8.869c5.054-2.744,12.696-4.266,21.897-6.27
	c5.599-1.098,8.441-3.206,8.782-5.46c-2.679,0.621-7.075,2.896-9.966,2.341c-2.844-0.547-4.281-1.919-5.547-2.716
	c2.109-0.441,5.991,0.062,9.447,0.058c3.455-0.003,6.503-0.732,8.553-1.069c4.254-0.698,7.627-2.434,9.647-6.327
	c0.874-4.192-1.931-4.952-4.563-2.253c-2.235,2.288-2.685,3.224-4.104,4.218c-1.42,0.993-3.809,1.955-5.516,2.253
	c-3.465,0.606-6.878,1.287-11.298,0.23c0.874-1.093,2.84-2.861,4.621-3.958c1.787-1.096,3.533-1.634,5.201-1.358
	c1.114,0.187,2.562,1.179,3.758,3.005c0.733-4.601-0.568-9.773-13.089-7.626c0.168-3.45-7.292-4.96-11.788-4.883l-0.004-0.006
	c-2.547,0.042-7.766,1.535-11.526,3.293c-5.947,1.802-11.86,3.12-18.779,3.611c3.998,3.356,4.782,3.549,8.812,6.413
	c-6.102,2.219-10.826,6.82-12.943,9.823c5.33,0.256,7.091-0.193,8.899,0.578c-7.425,2.15-10.785,3.41-14.705,7.338
	c1.385,0.253,3.452,0.624,4.332,0.954c0.911,0.342,0.534,0.81-0.087,1.474c-1.702,1.064-8.201,8.726-10.135,10.511
	c-1.934-1.785-8.435-9.447-10.136-10.511c-0.62-0.664-0.997-1.132-0.087-1.474c0.882-0.33,2.948-0.701,4.334-0.954
	c-3.92-3.928-7.281-5.188-14.706-7.338c1.811-0.771,3.57-0.322,8.898-0.578c-2.116-3.003-6.841-7.604-12.942-9.823
	c4.029-2.864,4.814-3.057,8.812-6.413c-6.923-0.491-12.832-1.809-18.779-3.611c-3.759-1.758-8.981-3.251-11.527-3.293l-0.005,0.006
	c-4.496-0.077-11.955,1.434-11.788,4.883c-12.518-2.146-13.822,3.025-13.088,7.626c1.194-1.826,2.643-2.818,3.757-3.005
	c1.669-0.276,3.418,0.262,5.2,1.358c1.783,1.097,3.749,2.865,4.624,3.958c-4.42,1.057-7.832,0.376-11.298-0.23
	c-1.708-0.299-4.097-1.26-5.518-2.253c-1.42-0.994-1.867-1.93-4.104-4.218c-2.633-2.698-5.438-1.939-4.563,2.253
	c2.02,3.893,5.395,5.628,9.65,6.327c2.046,0.336,5.094,1.066,8.551,1.069c3.454,0.004,7.334-0.499,9.444-0.058
	c-1.265,0.797-2.7,2.169-5.545,2.716c-2.892,0.556-7.288-1.72-9.967-2.341c0.341,2.255,3.185,4.363,8.783,5.46
	c9.199,2.003,16.846,3.525,21.9,6.27c5.053,2.743,8.24,6.178,10.515,8.869c4.529,5.356,4.766,9.469,5.055,10.373
	c0.933,8.556-2.05,13.37-7.599,14.851c-2.773,0.739-7.696-0.655-9.503-2.775c-1.806-2.119-3.563-5.764-3.063-11.469
	c0.488-2.24,3.046-8.07,0.868-9.274c-10.042-5.551-22.236-11.163-31.057-14.503c-2.411-0.913-4.399,2.364-5.172,3.64
	c-14.989-1.825-28.501-11.966-34.584-22.766c-4.14-7.355-10.969,0.015-9.821,6.962c1.855,7.755,7.761,13.362,14.851,17.334
	c7.275,4.006,16.368,7.948,25.566,7.744c4.957,0.937,4.909,7.348-1.039,8.551c-11.631,0.072-20.909-0.217-29.67-8.667
	c-6.646-6.067-10.387,1.163-8.467,5.259C30.039,65.5,48.054,69.036,66.277,64.948c7.058-1.169,2.831,6.395,0.838,6.472
	c-7.616,5.462-21.248,10.802-33.255-0.055c-5.493-4.208-9.208-0.671-7.165,5.401c5.329,15.833,25.707,12.508,39.698,4.71
	c3.599-2.01,6.87,2.662,2.483,6.21C51.479,99.844,42.778,99.982,34.93,95.312c-9.824-3.875-10.689,7.024-4.853,10.604
	c6.485,3.978,22.992,0.995,35.103-6.619c5.188-3.858,5.426,2.179,2.136,4.565c-14.368,12.421-20.035,15.692-35.014,13.667
	c-7.428-0.58-7.317,8.581-1.474,12.16c7.979,4.894,23.559-3.228,35.651-13.259c5.087-2.717,5.924,1.742,3.409,7.022
	c-7.39,9.319-14.322,14.817-21.004,17.363c-6.682,2.544-13.107,2.138-17.653,0.574c-5.547-1.903-6.242,3.86-3.176,9.102
	c1.848,3.161,9.502,4.172,17.766,1.242c8.266-2.93,17.136-9.802,23.229-17.854c5.299-4.64,4.64,1.592,2.225,5.979
	c-12.199,19.286-23.356,26.438-38.047,25.222c-6.518-1.104-7.996,3.961-3.843,8.639c7.292,6.048,16.409,5.857,24.382-0.114
	c7.09-6.836,20.651-21.555,27.765-29.441c5.012-3.996,6.611-0.056,5.143,8.061c-1.338,4.649-4.687,9.545-13.81,13.116
	c-6.234,3.56-1.553,8.463,3.118,8.551c2.573,0.053,7.793-2.953,11.789-7.452c5.256-5.918,5.567-9.892,8.464-19.096
	c2.739-4.488,7.628-2.391,7.628,2.311c-2.346,9.223-4.36,10.876-9.102,14.646c-4.531,4.26,3.16,5.68,5.749,3.93
	c7.498-5.052,10.238-11.588,12.743-17.533c1.809-4.293,7.055-2.213,4.621,4.795c-5.812,16.744-15.358,23.339-32.067,26.724
	c-1.693,0.301-2.727,1.299-2.138,3.263c2.242,2.329,4.488,4.443,6.73,6.761c-10.329,3.009-18.723,4.699-29.064,7.716
	c-5.073-3.325-9.17-6.147-14.243-9.477c-1.338-3.128-1.961-7.901-9.444-4.536c-5.073-2.343-7.414-1.482-10.228,0.867
	c4.063,0.149,5.832,1.24,7.423,3.092c2.08,5.478,6.876,6.009,11.788,4.447c3.196,2.693,4.896,4.757,8.09,7.454
	c-5.962-0.202-10.116-0.309-16.064-0.489c-5.676-6.098-10.208-5.763-14.271-0.984c-3.097,0.477-4.411,0.544-6.532,4.305
	c3.334-1.367,5.43-1.778,6.877-0.287c6.037,3.497,9.979,2.718,12.972,0c5.824,0.354,11.071,0.657,16.901,1.038
	c-2.14,1.822-5.082,2.789-7.222,4.624c-8.745-2.503-13.31,0.864-14.851,8.003c-1.171,2.879-1.72,5.845-1.213,8.928
	c0.846-2.819,2.208-5.241,4.711-6.761c7.795,1.979,10.725-1.204,11.15-5.865c3.759-3.065,9.426-3.742,13.174-6.846
	c4.385,1.401,6.506,2.272,10.921,3.666c1.57,4.771,5.123,6.66,10.892,5.433c6.867,0.216,5.654,3.032,6.21,5.289
	c1.826-3.24,1.775-6.388-2.457-9.248c-1.537-4.181-4.947-6.081-9.416-3.666c-4.208-1.196-5.314-2.914-9.505-4.104
	c10.602-3.379,18.121-4.14,28.716-7.511c2.652,2.502,4.754,4.298,7.426,6.529c1.408,0.84,2.756,1.051,3.582,0
	c6.638-9.607,9.605-18.077,15.774-24.413c2.358-2.621,5.336-6.157,8.638-7.02c1.652-0.433,3.676-0.169,4.969,1.241
	c1.292,1.411,2.31,4.01,1.876,7.888c-0.616,5.568-1.961,7.323-3.521,10.661c-1.563,3.335-3.471,5.39-5.433,7.944
	c-3.922,5.109-9.099,8.086-12.162,10.083c-6.126,3.996-8.72,2.246-13.464,1.993c-6.131,0.689-7.764,3.675-2.744,7.8
	c4.691,2.443,8.909,2.742,12.337,2.109c2.944-0.544,6.387-4.341,8.841-6.385c2.761-3.191,7.341,0.592,4.217,4.305
	c-5.674,6.745-11.346,11.189-18.346,11.095c-7.353,0.988-5.977,5.12-1.097,7.135c8.783,3.624,16.716-3.164,20.745-7.625
	c3.106-3.403,5.314-3.535,4.766,1.731c-3.087,9.535-7.302,13.219-14.187,13.694c-5.58-0.52-5.643,3.79-1.561,6.704
	c9.302,6.437,16.037-4.528,19.185-11.153c2.241-5.979,5.682-3.136,6.039,1.792c0.046,6.58-2.927,11.954-10.894,18.691
	c6.097,9.709,13.199,19.583,19.301,29.323c6.103-9.74,13.204-19.614,19.298-29.323c-7.965-6.737-10.938-12.111-10.893-18.691
	c0.359-4.928,3.798-7.771,6.04-1.792c3.146,6.625,9.882,17.59,19.185,11.153c4.081-2.914,4.021-7.224-1.56-6.704
	c-6.887-0.476-11.101-4.159-14.188-13.694c-0.548-5.267,1.661-5.135,4.769-1.731c4.026,4.461,11.957,11.249,20.743,7.625
	c4.879-2.015,6.256-6.146-1.097-7.135c-7.001,0.095-12.673-4.35-18.347-11.095c-3.123-3.713,1.455-7.496,4.218-4.305
	c2.453,2.044,5.896,5.841,8.841,6.385c3.429,0.633,7.643,0.334,12.336-2.109c5.02-4.125,3.387-7.11-2.744-7.8
	c-4.743,0.253-7.338,2.003-13.464-1.993c-3.063-1.997-8.238-4.974-12.163-10.083c-1.962-2.555-3.868-4.609-5.431-7.944
	c-1.562-3.338-2.907-5.093-3.525-10.661c-0.432-3.878,0.586-6.477,1.879-7.888c1.293-1.41,3.316-1.674,4.97-1.241
	c3.3,0.862,6.279,4.398,8.639,7.02c6.172,6.336,9.134,14.806,15.771,24.413c0.828,1.051,2.176,0.84,3.583,0
	c2.671-2.231,4.773-4.027,7.426-6.529c10.595,3.371,18.113,4.132,28.717,7.511c-4.192,1.19-5.297,2.908-9.507,4.104
	c-4.468-2.415-7.878-0.515-9.417,3.666c-4.23,2.86-4.279,6.008-2.455,9.248c0.556-2.257-0.654-5.073,6.21-5.289
	c5.77,1.228,9.323-0.661,10.893-5.433c4.416-1.394,6.536-2.265,10.921-3.666c3.752,3.104,9.416,3.78,13.175,6.846
	c0.425,4.661,3.355,7.845,11.151,5.865c2.501,1.52,3.861,3.941,4.708,6.761c0.508-3.083-0.041-6.049-1.211-8.928
	c-1.541-7.139-6.104-10.506-14.852-8.003c-2.142-1.835-5.08-2.802-7.223-4.624c5.831-0.381,11.078-0.684,16.902-1.038
	c2.992,2.718,6.934,3.497,12.972,0c1.446-1.491,3.541-1.08,6.875,0.287C280.025,200.873,278.712,200.806,275.614,200.329z
	 M195.473,16.991c3.645,0,5.954,1.139,5.954,2.659c0,1.546-2.31,2.917-5.954,2.917c-3.655,0-5.921-1.257-5.921-2.803
	C189.552,18.245,191.817,16.991,195.473,16.991z M104.528,22.567c-3.641,0-5.95-1.371-5.95-2.917c0-1.52,2.309-2.659,5.95-2.659
	c3.66,0,5.923,1.254,5.923,2.773C110.451,21.31,108.188,22.567,104.528,22.567z"/>
</svg>
