<?xml version="1.0" encoding="utf-8"?>
<!-- Generator: Adobe Illustrator 15.0.0, SVG Export Plug-In . SVG Version: 6.00 Build 0)  -->
<!DOCTYPE svg PUBLIC "-//W3C//DTD SVG 1.1//EN" "http://www.w3.org/Graphics/SVG/1.1/DTD/svg11.dtd">
<svg version="1.1" id="Calque_1" xmlns="http://www.w3.org/2000/svg" xmlns:xlink="http://www.w3.org/1999/xlink" x="0px" y="0px"
	 width="80px" height="30px" viewBox="0 0 80 30" enable-background="new 0 0 80 30" xml:space="preserve">
<g>
	<circle fill="#010202" cx="21.358" cy="24.799" r="4.731"/>
	<circle fill="#010202" cx="70.014" cy="24.799" r="4.731"/>
	<rect x="55.816" y="7.179" fill="#010202" width="1.354" height="17.621"/>
	<rect x="58.521" y="7.179" fill="#010202" width="1.351" height="17.621"/>
	<path fill="#FFE003" d="M78.256,22.098v-6.217c0-1.485-1.213-2.808-2.694-2.937l-12.983-1.12V3.173
		c0-1.487-1.219-2.704-2.707-2.704H5.805c-1.487,0-2.942,1.192-3.235,2.652L0.394,13.987v10.814h14.88
		c0-3.358,2.724-6.082,6.083-6.082c3.36,0,6.084,2.724,6.084,6.082h21.613l2.706,2.705h10.815V26.15h1.354v-1.35
		c0-3.358,2.723-6.082,6.082-6.082c3.358,0,6.082,2.722,6.082,6.079v1.353h3.513v-4.053H78.256L78.256,22.098z M41.286,5.873h5.237
		v6.492h-5.237V5.873z M34.695,5.873h5.238v6.492h-5.238V5.873z M28.104,5.873h5.238v6.492h-5.238V5.873z M21.515,5.873h5.238v6.492
		h-5.238V5.873z M14.924,5.873h5.238v6.492h-5.238V5.873z M8.335,5.873h5.239v6.492H8.335V5.873z M3.397,5.873h3.587v6.492H2.098
		L3.397,5.873z M15.312,20.478H1.747v-1.352h14.811C16.088,19.522,15.67,19.976,15.312,20.478z M53.112,20.478H27.405
		c-0.358-0.502-0.777-0.955-1.246-1.352h26.953V20.478z M53.112,15.069H1.747v-1.351h51.367L53.112,15.069L53.112,15.069z
		 M53.112,12.366h-5.238V5.873h5.238V12.366z M61.223,26.149h-6.758V5.873h6.758V26.149z"/>
	<path fill="#FFE003" d="M78.256,15.881c0.371,0,0.673,0.303,0.673,0.676s-0.302,0.677-0.673,0.677
		c-0.375,0-0.678-0.304-0.678-0.677S77.881,15.881,78.256,15.881z"/>
</g>
</svg>
