<?xml version="1.0" encoding="utf-8"?>
<!-- Generator: Adobe Illustrator 15.0.0, SVG Export Plug-In . SVG Version: 6.00 Build 0)  -->
<!DOCTYPE svg PUBLIC "-//W3C//DTD SVG 1.1//EN" "http://www.w3.org/Graphics/SVG/1.1/DTD/svg11.dtd">
<svg version="1.1" id="Calque_1" xmlns="http://www.w3.org/2000/svg" xmlns:xlink="http://www.w3.org/1999/xlink" x="0px" y="0px"
	 width="50px" height="70px" viewBox="0 0 50 70" enable-background="new 0 0 50 70" xml:space="preserve">
<g>
	<g>
		<path fill="#FFE003" d="M27.722,15.681c0.153,0.028,0.245,0.114,0.2,0.208l-0.084,0.167l-0.572,1.079
			c-0.073,0.138-0.004,0.252,0.151,0.252h0.105c0.158,0,0.245,0.121,0.206,0.271c-0.12,0.491-0.157,1.007-0.081,1.563
			c0.103,0.746,0.56,1.434,0.878,2.103c0.444,0.936,0.557,1.795,0.308,2.799c-0.221,0.888-0.519,1.722-0.631,2.639
			c-0.112,0.91,1.313,0.896,1.423-0.002c0.104-0.844,0.425-1.641,0.628-2.462c0.206-0.824,0.195-1.649-0.008-2.471
			c-0.195-0.791-0.639-1.489-0.983-2.218c-0.321-0.683-0.27-1.328-0.054-1.957c0.049-0.148,0.227-0.266,0.383-0.266h0.084
			c0.155,0,0.224-0.113,0.149-0.252l-0.572-1.079c0,0-0.036-0.074-0.083-0.16c-0.044-0.089,0.047-0.176,0.201-0.203
			c2.935-0.526,5.191-3.792,5.191-7.722c0-4.298-2.698-7.779-6.028-7.779c-3.329,0-6.028,3.481-6.028,7.779
			C22.504,11.915,24.776,15.168,27.722,15.681z"/>
		<circle fill="#010202" cx="21.77" cy="30.911" r="4.865"/>
		<path fill="#010202" d="M33.748,26.865c-1.126-0.293-2.285,0.388-2.576,1.52l-1.902,7.375l-4.306,1.963h-7.526
			c-0.114,0-0.222,0.016-0.327,0.041c-0.416,0.08-0.811,0.283-1.123,0.617L8.5,46.652c-0.779,0.836-0.733,2.146,0.101,2.924
			c0.399,0.373,0.906,0.557,1.412,0.557c0.554,0,1.106-0.221,1.514-0.658l4.53-5.059v5.922l-0.601,17.121
			c-0.047,1.332,0.995,2.449,2.328,2.498c0.028,0,0.058,0,0.087,0c1.293,0,2.365-1.025,2.411-2.33l0.452-12.832h1.882l1.696,13.059
			c0.158,1.217,1.196,2.104,2.39,2.104c0.105,0,0.211-0.008,0.316-0.021c1.322-0.17,2.254-1.381,2.082-2.705l-2.396-18.217
			l-0.062-7.406l5.3-2.418c0.582-0.266,1.014-0.779,1.173-1.395l2.152-8.353C35.562,28.309,34.881,27.156,33.748,26.865z"/>
	</g>
	<g>
		<g>
			<path fill="#FFE003" d="M43.693,31.212c0.078,0.014,0.124,0.057,0.101,0.105l-0.042,0.084l-0.29,0.545
				c-0.037,0.069-0.002,0.128,0.077,0.128h0.054c0.078,0,0.123,0.062,0.104,0.136c-0.061,0.249-0.079,0.51-0.04,0.791
				c0.051,0.378,0.282,0.727,0.443,1.063c0.225,0.475,0.28,0.909,0.155,1.417c-0.111,0.449-0.263,0.874-0.319,1.334
				c-0.056,0.463,0.664,0.455,0.72,0c0.054-0.426,0.215-0.829,0.318-1.245c0.104-0.418,0.098-0.835-0.004-1.251
				c-0.1-0.4-0.323-0.752-0.497-1.122c-0.164-0.346-0.137-0.671-0.028-0.991c0.024-0.074,0.115-0.133,0.194-0.133h0.042
				c0.079,0,0.113-0.057,0.076-0.128l-0.289-0.545c0,0-0.02-0.038-0.043-0.082c-0.021-0.044,0.023-0.088,0.102-0.102
				c1.485-0.267,2.626-1.918,2.626-3.906c0-2.175-1.364-3.936-3.049-3.936s-3.05,1.761-3.05,3.936
				C41.053,29.305,42.202,30.953,43.693,31.212z"/>
			<circle fill="#010202" cx="40.682" cy="38.917" r="2.462"/>
			<path fill="#010202" d="M46.741,36.871c-0.57-0.15-1.156,0.195-1.303,0.768l-0.962,3.73l-2.179,0.992h-3.809
				c-0.058,0-0.111,0.01-0.165,0.021c-0.209,0.041-0.41,0.145-0.567,0.312l-3.789,4.186c-0.394,0.422-0.371,1.086,0.051,1.479
				c0.202,0.188,0.458,0.283,0.715,0.283c0.28,0,0.56-0.113,0.767-0.334l2.291-2.561v2.996l-0.305,8.662
				c-0.022,0.676,0.504,1.24,1.179,1.264c0.015,0,0.028,0,0.044,0c0.653,0,1.196-0.518,1.22-1.178L40.157,51h0.953l0.857,6.605
				c0.08,0.617,0.605,1.064,1.21,1.064c0.053,0,0.105-0.004,0.159-0.01c0.669-0.086,1.141-0.699,1.053-1.367l-1.21-9.219
				l-0.033-3.746l2.683-1.223c0.294-0.135,0.512-0.395,0.593-0.707l1.088-4.227C47.66,37.6,47.314,37.018,46.741,36.871z"/>
		</g>
	</g>
	<g>
		<g>
			<path fill="#FFE003" d="M10.298,16.254c0.069,0.014,0.112,0.052,0.091,0.095l-0.038,0.075l-0.261,0.492
				c-0.033,0.062-0.001,0.114,0.069,0.114h0.048c0.072,0,0.112,0.056,0.094,0.123c-0.055,0.225-0.071,0.458-0.036,0.711
				c0.046,0.339,0.254,0.652,0.399,0.956c0.202,0.427,0.253,0.817,0.14,1.275c-0.1,0.401-0.236,0.783-0.287,1.199
				c-0.05,0.414,0.597,0.408,0.647,0c0.048-0.384,0.193-0.747,0.286-1.119c0.093-0.376,0.089-0.751-0.003-1.125
				c-0.09-0.359-0.291-0.677-0.447-1.009c-0.146-0.31-0.122-0.603-0.024-0.89c0.022-0.066,0.103-0.12,0.174-0.12h0.038
				c0.071,0,0.102-0.052,0.068-0.114l-0.26-0.492c0,0-0.017-0.032-0.038-0.072c-0.02-0.04,0.021-0.08,0.091-0.092
				c1.335-0.239,2.361-1.724,2.361-3.51c0-1.956-1.227-3.538-2.741-3.538c-1.514,0-2.742,1.582-2.742,3.538
				C7.925,14.541,8.958,16.022,10.298,16.254z"/>
			<circle fill="#010202" cx="7.592" cy="23.181" r="2.213"/>
			<path fill="#010202" d="M13.039,21.34c-0.512-0.133-1.04,0.177-1.171,0.691l-0.866,3.354l-1.958,0.892H5.62
				c-0.051,0-0.1,0.007-0.148,0.02c-0.189,0.037-0.369,0.127-0.51,0.281l-3.407,3.761c-0.354,0.38-0.333,0.976,0.046,1.331
				c0.182,0.169,0.412,0.253,0.643,0.253c0.252,0,0.502-0.102,0.688-0.3l2.06-2.301v2.693L4.72,39.803
				c-0.021,0.604,0.453,1.111,1.059,1.135c0.012,0,0.026,0,0.039,0c0.588,0,1.076-0.467,1.097-1.059l0.206-5.837h0.855l0.771,5.94
				c0.072,0.551,0.544,0.955,1.087,0.955c0.048,0,0.096-0.002,0.144-0.01c0.601-0.078,1.025-0.629,0.946-1.23l-1.089-8.285
				l-0.028-3.369l2.411-1.099c0.264-0.121,0.46-0.354,0.533-0.634l0.979-3.799C13.864,21.998,13.553,21.473,13.039,21.34z"/>
		</g>
	</g>
</g>
</svg>
