<?xml version="1.0" encoding="utf-8"?>
<!-- Generator: Adobe Illustrator 15.0.0, SVG Export Plug-In . SVG Version: 6.00 Build 0)  -->
<!DOCTYPE svg PUBLIC "-//W3C//DTD SVG 1.1//EN" "http://www.w3.org/Graphics/SVG/1.1/DTD/svg11.dtd">
<svg version="1.1" id="Calque_1" xmlns="http://www.w3.org/2000/svg" xmlns:xlink="http://www.w3.org/1999/xlink" x="0px" y="0px"
	 width="150px" height="150px" viewBox="0 0 150 150" enable-background="new 0 0 150 150" xml:space="preserve">
<g>
	<path fill="#010202" d="M113.358,105.232c0.773-0.935,1.55-1.887,2.227-2.904c0.677-1.017,1.304-2.079,1.93-3.135
		c7.425-9.373,11.896-21.416,11.896-34.559c0-29.849-23.055-54.043-51.49-54.043c-16.115,0-30.473,7.785-39.915,19.95
		c-0.323,0.329-0.626,0.663-0.89,1.034c-0.212,0.3-0.414,0.64-0.612,0.992c-3.303,4.686-6.576,16.083-6.009,16.341
		c-0.153,1.057-0.261,2.119-0.261,3.153c0.008,2.173-0.116,4.369,0,6.536c0.116,2.185,0.943,3.678,1.36,5.819
		c0.793,4.034-0.06,8.026-1.352,11.638c-1.221,3.408-2.397,6.904-3.782,10.296c-1.128,2.751-5.36,6.437-2.009,8.579
		c1.632,1.039,4.811,1.016,5.785,2.461c1.065,1.566-0.32,3.553,0.204,5.023c0.479,1.342,1.437,0.504,2.114,1.232
		c1.133,1.207,0.104,1.252-0.306,2.074c-1.337,2.722-0.753,2.388,0.873,4.719c2.34,3.369-1.25,7.454,0.357,10.837
		c1.91,4,7.89,3.821,11.633,4.222c5.264,0.543,10.796,0.212,16.131,0.207l7.069,15.207h58.504
		C126.814,140.912,111.602,123.756,113.358,105.232z"/>
	<circle fill="#FFE006" cx="78.328" cy="62.921" r="32.968"/>
	<rect x="63.667" y="48.333" fill="none" width="36" height="36"/>
	<text transform="matrix(1 0 0 1 63.667 81.334)" font-family="'PoiretOne-Regular'" font-size="44">?</text>
</g>
</svg>
