<?xml version="1.0" encoding="utf-8"?>
<!-- Generator: Adobe Illustrator 15.0.0, SVG Export Plug-In . SVG Version: 6.00 Build 0)  -->
<!DOCTYPE svg PUBLIC "-//W3C//DTD SVG 1.1//EN" "http://www.w3.org/Graphics/SVG/1.1/DTD/svg11.dtd">
<svg version="1.1" id="Calque_1" xmlns="http://www.w3.org/2000/svg" xmlns:xlink="http://www.w3.org/1999/xlink" x="0px" y="0px"
	 width="80px" height="75px" viewBox="0 0 80 75" enable-background="new 0 0 80 75" xml:space="preserve">
<g>
	<path fill="#010202" d="M25.282,11.154c-1.81-0.332-3.822-0.333-5.268,0.495c-1.521,0.868-2.757,2.291-3.674,3.649
		c-1.707,2.529-2.343,5.572-2.091,8.702c0.332,4.106,2.012,8.416,4.505,12.191c-3.116,0.229-6.212,0.425-9.232,0.964
		c-2.862,0.515-5.607,1.388-8.165,2.472c0.036,0.264-0.032,0.756,0.393,0.848c0.566,0.125,1.216,0.334,1.758,0.369
		c3.682-0.42,7.324-0.65,11.115-0.637l-8.917,2l0.111,0.531l-2.288,0.498l1.682,2.119l1.606,0.35l0.296-0.066l1.119,0.244
		l16.263-3.561l0.009,0.006c-1.888,2.482-2.247,4.762-3.64,7.705c-0.887-0.42-2.012-0.785-2.824-0.963l-1.606-0.35
		C6.618,46.596-0.43,55.242,0.771,63.031l0.161,0.854c1.112,4.93,5.041,8.535,9.774,9.559l1.606,0.346
		c-0.097-0.023-0.194-0.049-0.292-0.072c5.699,1.371,10.944-1.229,13.684-4.975c2.696-3.686,3.371-8.814,0.888-13.377
		c0.104-0.096,0.208-0.193,0.308-0.287l1.525,0.33c-0.048-0.012-0.096-0.023-0.144-0.035c2.945,0.648,5.951,0.713,8.61-0.127
		c2.816-0.891,5.007-2.678,6.671-4.756c0.92,0.797,1.732,1.32,2.461,1.477l1.605,0.35c-0.182-0.053-0.084-0.037,0.293,0.043
		c0.705-0.057,0.895-0.785,0.971-1.307c0.195-1.359-0.08-2.844-0.354-4.242c-0.395-2.029-0.844-3.832-0.369-5.781
		c0.459-1.891,1.41-3.633,2.619-5.163c1.695,1.895,3.275,3.669,4.713,5.269c-0.002,0.006-0.008,0.006-0.012,0.014
		c-2.973,3.033-4.33,7.398-3.271,11.738c1.049,4.275,4.686,8.25,9.727,9.34l1.607,0.348c-0.098-0.021-0.193-0.049-0.293-0.072
		c9.967,2.402,17.168-6.342,15.971-14.217l-0.111-0.574l-0.059-0.318c-1.01-4.398-4.736-8.498-9.936-9.554
		c0.055,0.01,0.109,0.017,0.162,0.025l-1.607-0.346c-3.121-0.676-6.262-0.15-8.76,1.123c-0.006,0.004-0.012,0.008-0.02,0.01
		c-1.443-1.775-3.004-3.725-4.645-5.898c0.943-1.796,3.178-2.515,5.404-2.721c1.328-0.123,2.693-0.094,4.061,0.007
		c1.094,0.081,2.328,0.334,3.383,0.197c0.246-0.205,0.627-0.818,0.127-1.075c-0.572-0.289-1.604-0.543-1.934-0.613L63.693,28.2
		c-4.438-0.961-9.662-0.565-12.91,1.79l-2.754-6.623c0,0-3.404-0.235-6.119-0.542l-9.624-6.716c-0.168-0.117-0.343-0.217-0.52-0.31
		 M33.712,3.071 M22.457,62.539L22.457,62.539L22.457,62.539c-0.739,4.139-4.776,7.963-10.075,7.273
		c-4.99-1.576-6.906-6.613-5.945-10.418c0.986-3.91,4.921-7.334,9.991-6.674c0.785,0.252,1.53,0.607,2.212,1.055
		c-0.825,1.143-1.87,2.393-3.201,3.764l-0.98-0.213c-4.849-1.041-6.977,6.396-1.752,7.525l1.605,0.346
		c0.256,0.057,1.197,0.131,1.71-0.004c1.77-0.385,2.995-1.863,3.105-3.541c0.887-1.01,1.996-1.951,3.153-2.861
		C22.626,60.049,22.671,61.332,22.457,62.539C22.459,62.525,22.461,62.52,22.457,62.539z M22.453,62.564
		C22.421,62.74,22.441,62.637,22.453,62.564L22.453,62.564z M31.242,26.071l0.25-4.821l7.616,5.314
		C36.592,26.157,33.675,26.059,31.242,26.071z M73.668,51.441C73.668,51.451,73.666,51.451,73.668,51.441L73.668,51.441z
		 M73.688,51.326c-0.734,4.152-4.773,7.945-10.076,7.266c-6.676-2.113-7.389-9.516-4.498-13.469
		c0.926,1.006,1.744,1.879,2.443,2.588c-1.246,1.826-0.76,5.242,2.385,5.922l1.605,0.348c2.129,0.465,4.229-0.98,4.705-2.869
		c0.477-1.902-0.775-4.457-3.406-4.721c0.152,0.016,0.301,0.039,0.449,0.07l-1.605-0.346c-0.293-0.064-0.559-0.074-0.846-0.074
		c-0.734-1.01-1.666-2.172-2.758-3.504c1.553-0.846,3.439-1.279,5.424-1.059C72.275,42.922,74.354,47.586,73.688,51.326z"/>
	<path fill="#010202" d="M22.457,62.539L22.457,62.539L22.457,62.539z"/>
	<path fill="#FFE003" d="M32.079,14.222c1.351,0.792,2.983,1.577,3.71,1.27c1.346-0.571,1.446-1.223,1.446-1.223l-1.928-1.937
		c1.191-1.077,1.894-2.621,1.996-4.25c4.003,1.614,3.365,0.468,3.365,0.468l-3.984-3.678c-0.511-1.094-1.332-2.098-2.527-2.864
		c-2.36-1.509-5.216-1.213-7.033,0.205c-2.329,1.817-2.981,5.152-1.502,7.979"/>
</g>
</svg>
