<?xml version="1.0" encoding="utf-8"?>
<!-- Generator: Adobe Illustrator 15.0.0, SVG Export Plug-In . SVG Version: 6.00 Build 0)  -->
<!DOCTYPE svg PUBLIC "-//W3C//DTD SVG 1.1//EN" "http://www.w3.org/Graphics/SVG/1.1/DTD/svg11.dtd">
<svg version="1.1" id="Calque_1" xmlns="http://www.w3.org/2000/svg" xmlns:xlink="http://www.w3.org/1999/xlink" x="0px" y="0px"
	 width="80px" height="80px" viewBox="0 0 80 80" enable-background="new 0 0 80 80" xml:space="preserve">
<g>
	<path fill="#FFE003" d="M39.976,0.799c-21.601,0-39.175,17.573-39.175,39.173s17.574,39.174,39.175,39.174
		c29.349,0,39.172-17.52,39.172-39.174C79.147,18.372,61.573,0.799,39.976,0.799z M39.976,71.109
		c-17.17,0-31.139-13.967-31.139-31.137S22.805,8.835,39.976,8.835c17.169,0,31.136,13.966,31.136,31.137
		S57.145,71.109,39.976,71.109z"/>
	<circle fill="#FFE003" cx="30.433" cy="28.984" r="5.022"/>
	<circle fill="#FFE003" cx="49.753" cy="28.984" r="5.022"/>
	<path fill="#FFE003" d="M56.863,42.359c-1.167,8.287-8.284,14.689-16.888,14.689c-8.604,0-15.723-6.402-16.889-14.689h-6.09
		c1.197,11.621,11.046,20.717,22.979,20.717c11.933,0,21.78-9.096,22.978-20.717H56.863z"/>
</g>
</svg>
